<?xml version="1.0" encoding="UTF-8"?><svg id="Layer_1" xmlns="http://www.w3.org/2000/svg" viewBox="0 0 414.85453 468.03033"><defs><style>.cls-1{fill:none;}.cls-2{fill:#014bd1;}.cls-3{fill:#0028aa;}.cls-4{fill:#4279f4;}.cls-5{fill:#fff;}.cls-6{fill:#326ce5;}</style></defs><path class="cls-4" d="M18.57209,383.85914v-61.99823h7.94707v32.41132l28.35471-32.41132h8.86085l-24.07658,27.27479,26.30564,34.70959h-9.31774l-22.04136-28.79776-8.08552,9.20699v19.60463h-7.94707ZM73.98007,370.3048v-30.7499h7.51788v30.99914c-.06947,2.38604,1.18136,4.61622,3.25359,5.80109,4.71205,2.72051,10.51753,2.72051,15.22958,0,2.05707-1.19649,3.29485-3.42235,3.2259-5.80109v-30.99914h7.51788v30.72222c.13237,4.37226-2.01751,8.49899-5.67648,10.89607-7.65842,5.27129-17.77499,5.27129-25.4334,0-3.63664-2.39986-5.76936-6.51333-5.63494-10.86839ZM123.60081,383.85914v-66.45635h7.51788v23.27356c4.14262-1.49373,8.50088-2.3027,12.90361-2.39519,2.97821-.06407,5.92635.60638,8.58394,1.95216,2.35482,1.18128,4.3524,2.96859,5.78724,5.17806,1.38247,2.16298,2.42381,4.52582,3.08746,7.0056.67774,2.51903,1.01761,5.11697,1.01069,7.72555.00001,7.78095-2.02138,13.68352-6.06414,17.70784-4.04276,4.02427-10.42072,6.02722-19.1339,6.00876h-13.69278ZM131.11869,377.1166h6.29951c6.24874,0,10.73455-1.36144,13.45741-4.08431s4.10737-7.11178,4.15352-13.16666c.06371-3.66055-.89525-7.26625-2.76901-10.4115-1.71826-2.92171-4.92247-4.6413-8.30704-4.45812-4.36581-.11256-8.71284.61115-12.80669,2.13213l-.0277,29.98845ZM171.92012,361.62396c.00001-7.11637,1.88754-12.79285,5.66263-17.02944,3.78466-4.24561,9.2694-6.57662,14.95268-6.35488,12.32213,0,18.48779,8.70394,18.49702,26.11181h-31.59446c.26515,3.60636,1.6714,7.03467,4.01507,9.78848,2.39058,2.87055,6.03644,4.30119,10.9376,4.29198,5.01223.1494,9.99678-.79552,14.60656-2.76901v6.92254c-4.35517,1.6858-8.98126,2.56316-13.65124,2.58902-3.64425.08171-7.26828-.56309-10.6607-1.89677-2.82849-1.10632-5.33969-2.89463-7.3102-5.20576-1.84787-2.1946-3.25784-4.72312-4.15352-7.44866-.90673-2.91212-1.34601-5.9496-1.30144-8.9993ZM179.70105,358.68881h23.8966c-.23547-3.51191-1.36501-6.90528-3.28128-9.85769-1.75182-2.54419-4.69568-4.0004-7.78093-3.84893-3.27497-.04369-6.40925,1.32914-8.59779,3.76586-2.46407,2.75672-3.9443,6.25278-4.2089,9.94075h-.0277Z"/><path class="cls-4" d="M194.69579,387.39741c-3.69706,0-7.34481-.69137-10.82117-2.05848-3.15412-1.23333-5.98599-3.24982-8.18558-5.82975-2.04774-2.43248-3.58281-5.18526-4.57201-8.19486-.98676-3.16779-1.45841-6.42152-1.41203-9.70551.00293-7.63678,2.09705-13.85616,6.22426-18.48774,4.24-4.75804,10.31876-7.34773,16.69243-7.09531,17.02005-.00146,20.61897,15.40246,20.6258,28.32508l.00098,2.21667h-31.23361c.53806,2.2528,1.59757,4.34253,3.12531,6.13735,1.97352,2.36901,4.9797,3.5125,9.20456,3.5125h.04199c4.72239.12695,9.45406-.75679,13.73849-2.59068l3.08723-1.32219v11.79817l-1.41545.54782c-4.62132,1.78994-9.47896,2.71176-14.43816,2.73911-.22118.00586-.44236.00781-.66305.00781ZM191.85464,340.44153c-4.87082,0-9.41061,2.0287-12.61795,5.62713-3.38507,3.79862-5.10128,9.03221-5.10128,15.55577v.03222c-.0415,2.82016.36277,5.6159,1.2011,8.30813.80074,2.43443,2.06043,4.69407,3.73319,6.68029,1.71817,2.01551,3.94216,3.59941,6.42249,4.56908,3.13752,1.23431,6.42982,1.81435,9.80463,1.746,3.94753-.02246,7.79546-.66988,11.4852-1.92567v-2.17761c-4.00905,1.29973-8.26175,1.91591-12.45731,1.78896-.01758.00098-.03515.00098-.05273.00098-5.47284,0-9.70844-1.7128-12.52079-5.08858-2.65171-3.11604-4.22096-6.94102-4.5227-11.04431l-.17479-2.37682h31.72528c-.74801-21.68238-12.34843-21.68238-16.24372-21.68238-.22753-.00879-.45456-.01318-.68063-.01318ZM92.34456,387.31538c-4.89816.00098-9.80121-1.43742-13.98555-4.31714-4.2649-2.8143-6.74132-7.57966-6.59436-12.72683v-32.93176h11.94855v33.21397c-.04638,1.63663.77291,3.09846,2.13758,3.87771,4.02272,2.32311,9.00926,2.32311,13.0232.00488,1.35002-.78511,2.16443-2.24987,2.11902-3.81815l-.00098-33.27842h11.94806v32.93762c.15331,5.03878-2.40465,9.94964-6.67785,12.74831-4.15211,2.85824-9.0327,4.2898-13.91768,4.2898ZM76.19507,341.77007l-.00098,28.6029c-.11132,3.61308,1.62344,6.95957,4.64085,8.95165,6.89171,4.7429,16.10213,4.74095,22.9577.02344,3.0345-1.98817,4.82639-5.42841,4.718-9.0034l-.00098-28.57458h-3.08723v28.78355c.0913,3.12971-1.56632,6.11099-4.3274,7.71637-5.38788,3.11018-12.07208,3.11018-17.45118.00391-2.77963-1.58878-4.45336-4.57396-4.36011-7.78472l-.00098-28.7191h-3.08772ZM137.4109,386.07521c-.04101,0-.08105,0-.12206-.00098h-15.90341v-70.88667h11.94855v22.45529c3.46319-.97114,7.02988-1.5004,10.6415-1.57657,3.34405-.0664,6.66125.68649,9.63179,2.19128,2.69565,1.35198,4.99582,3.40997,6.64416,5.94742,1.51554,2.37145,2.64634,4.93722,3.36944,7.63922.7275,2.70493,1.0932,5.49969,1.08588,8.30374,0,8.35012-2.25964,14.83609-6.71642,19.27236-4.43628,4.41577-11.36021,6.6549-20.57942,6.6549ZM125.81584,381.6448h11.59164c8.00981,0,13.88106-1.80459,17.45703-5.36494,3.59111-3.57402,5.41181-9.0034,5.41181-16.13777.00635-2.41735-.30809-4.82102-.93452-7.1495-.60641-2.2655-1.55314-4.41382-2.81478-6.38832-1.21087-1.86415-2.91292-3.38702-4.91379-4.39087-2.3319-1.1806-4.9216-1.76504-7.54352-1.71768-4.17164.08789-8.27591.84956-12.19952,2.26452l-2.96663,1.06976v-24.21203h-3.08772v62.02682ZM28.73434,386.07424h-12.37724v-66.42843h12.37724v28.72984l25.13434-28.72984h14.77652l-26.12647,29.59698,27.90323,36.81679h-14.87026l-21.06474-27.52093-5.75261,6.55042v20.98516ZM20.78752,381.6448h3.51641v-18.22555l10.41836-11.86262,23.01776,30.07352h3.76542l-24.7081-32.60121,22.02709-24.95271h-2.94515l-31.57539,36.09223v-36.09223h-3.51641v57.56857ZM137.41822,379.33243h-8.51662l.03125-33.7447,1.4423-.5361c4.35181-1.61612,8.91308-2.37633,13.55003-2.27233,4.19654-.18261,8.11283,1.92812,10.24455,5.55194,2.07996,3.4915,3.14533,7.49714,3.07405,11.57357-.0498,6.60705-1.66543,11.55795-4.80198,14.69352-3.13947,3.14045-8.19437,4.73411-15.02358,4.73411ZM133.33593,374.90103h4.08229c5.61102,0,9.61177-1.15521,11.89045-3.43536,2.28503-2.28405,3.46416-6.19301,3.50518-11.61654.05713-3.27277-.79244-6.4679-2.45689-9.2612-1.31047-2.2279-3.71268-3.51738-6.28432-3.38018l-.08837.00488-.08837-.00195c-3.59062-.09374-7.129.41013-10.53555,1.4965l-.02441,26.19385ZM205.96616,360.90474h-26.26514v-2.21765l-2.18152-.15673c.29783-4.15504,1.99061-8.15335,4.76634-11.25865,2.60386-2.89925,6.33461-4.5227,10.21086-4.50512,3.85818-.16601,7.45515,1.6293,9.64448,4.80833,2.15027,3.31232,3.40704,7.08701,3.66679,10.96619l.15819,2.36364ZM182.31074,356.47384h18.76263c-.45554-2.28454-1.34221-4.47534-2.61509-6.43665-1.29241-1.87587-3.46074-2.96517-5.81462-2.84213l-.06884.00342-.06933-.00098c-2.65854-.0415-5.15792,1.06928-6.91954,3.03059-1.5878,1.77627-2.71323,3.93728-3.27521,6.24575Z"/><path class="cls-3" d="M220.3225,346.32515v-6.77024h6.92254v-10.50841c-.13827-3.11425,1.01956-6.14667,3.19821-8.37627,2.08422-2.08458,4.93085-3.22523,7.87785-3.15667h10.88223v6.81177h-6.92254c-3.05977,0-5.08114.62302-6.05029,1.85523s-1.46757,3.5305-1.46757,6.92254v6.45181h11.71294v6.74254h-11.71294v37.56169h-7.53172v-37.52016l-6.9087-.01384ZM259.00562,383.85914v-66.45635h7.51786v66.45635h-7.51786ZM285.51893,378.39032c-9.90974-9.39668-10.32565-25.04761-.92897-34.95735,9.39668-9.90972,25.04761-10.32565,34.95733-.92897,9.90974,9.39668,10.32567,25.04763.92899,34.95733-4.65573,4.90996-11.12008,7.69752-17.88637,7.71307-6.38685.21498-12.57388-2.24378-17.07098-6.78408ZM290.83543,349.80025c-5.90501,6.83966-5.90501,16.9739,0,23.81354,6.51489,6.46212,17.02173,6.46212,23.53662,0,5.94684-6.82405,5.94684-16.98949,0-23.81352-6.51489-6.46212-17.02173-6.46212-23.53662,0v-.00002ZM332.64754,339.55491h7.96092l10.10691,35.05573,10.28688-35.05573h7.42096l10.16228,35.08341,10.20385-35.08341h7.94706l-13.90047,44.30423h-8.47318l-9.45619-34.03119-9.3454,34.03119h-8.95776l-13.95586-44.30423Z"/><path class="cls-3" d="M301.76941,387.40424c-6.61584,0-13.08228-2.68051-17.80028-7.43123-5.20625-4.94894-8.17825-11.62826-8.36916-18.81047-.19091-7.19393,2.43102-14.03144,7.38289-19.25381,10.2216-10.78065,27.30756-11.23473,38.0887-1.01215,10.78016,10.22209,11.23424,27.30854,1.01215,38.08918-5.04855,5.32392-12.15215,8.38723-19.48915,8.4048-.27489.00879-.55075.01367-.82515.01367ZM302.5389,337.94557c-5.96646,0-11.9217,2.35094-16.34137,7.01182-4.13746,4.36304-6.32826,10.07659-6.1686,16.08797.15966,6.01041,2.65073,11.59994,7.01426,15.7374l.0498.04883c4.04958,4.08766,9.68598,6.32777,15.42199,6.12954,6.19985-.01562,12.13507-2.57505,16.35407-7.02402,8.54103-9.00731,8.16117-23.28435-.84614-31.82586-4.34644-4.12135-9.91986-6.16567-15.484-6.16567ZM384.46255,386.07424h-11.78352l-7.75982-27.92667-7.66901,27.92667h-12.27178l-15.35119-48.73459h12.64822l8.45851,29.34016,8.60987-29.34016h10.74403l8.50197,29.35188,8.53712-29.35188h12.62625l-15.29065,48.73459ZM378.85496,381.64382h2.35387l12.51053-39.87375h-3.2674l-11.59701,39.87375ZM376.04603,381.64382h2.26257l-11.54965-39.87375h-1.79238l11.07946,39.87375ZM350.96003,381.64382h2.91244l10.94958-39.87375h-2.16101l-11.70101,39.87375ZM348.22825,381.64382h2.20935l-11.49594-39.87375h-3.27374l12.56033,39.87375ZM268.73854,386.07424h-11.94806v-70.88667h11.94806v70.88667ZM261.22089,381.64382h3.08723v-62.02584h-3.08723v62.02584ZM236.9781,386.07424h-11.96222v-37.52428l-6.90879-.01416v-11.19615h6.92295v-8.29299c-.16308-3.61308,1.23186-7.2662,3.82889-9.92474,2.5189-2.5189,5.99576-3.9075,9.51412-3.82303l13.04566-.00049v11.24205h-9.13767c-3.26154,0-4.12282.77291-4.30933,1.00971-.29881.37986-.9936,1.68155-.9936,5.55291v4.23658h11.71321v11.17321h-11.71321v37.56138ZM229.44629,381.64382h3.10139v-37.56138h11.71321v-2.31237h-11.71321v-8.667c0-3.91824.63522-6.63049,1.94179-8.29202,1.42912-1.81728,3.97781-2.70102,7.79156-2.70102h4.70726v-2.38121h-8.667c-2.40807-.06396-4.6638.85933-6.31166,2.50767-1.72598,1.7665-2.66245,4.21949-2.55162,6.71154l.00244,12.82204h-6.92295v2.34411l6.90879.01416v37.51549ZM302.60384,380.65364c-4.82786,0-9.65327-1.82216-13.32836-5.46649l-.11669-.12597c-6.57288-7.61286-6.57288-19.09513,0-26.70847l.11669-.12499c7.3492-7.28963,19.30752-7.28963,26.65672,0l.10986.11718c6.6383,7.61774,6.6383,19.10636,0,26.7241l-.10986.11816c-3.6746,3.64335-8.50246,5.46649-13.32836,5.46649ZM292.45645,372.10138c5.61346,5.5036,14.68424,5.5036,20.29867-.00391,5.1213-5.93815,5.1213-14.84292,0-20.78058-5.61346-5.50653-14.68424-5.50751-20.29867-.00391-5.07296,5.94108-5.07296,14.84732,0,20.78839Z"/><rect class="cls-3" x="16.3571" y="401.29578" width="383.3961" height="50.82185"/><path class="cls-5" d="M123.39402,419.73307h-7.61377v-5.60059h21.52441v5.60059h-7.65088v19.54785h-6.25977v-19.54785Z"/><path class="cls-5" d="M158.50242,439.28092l-5.52734-7.87012h-2.48926v7.87012h-6.25928v-25.14844h11.67725c5.56396,0,9.55371,3.55078,9.55371,8.63965,0,3.84277-2.26953,6.80859-5.82031,8.05273l5.9668,8.45605h-7.10156ZM150.48582,425.69987h4.86865c2.15967,0,3.66064-1.1709,3.66064-2.92773,0-1.75781-1.50098-2.92871-3.66064-2.92871h-4.86865v5.85645Z"/><path class="cls-5" d="M189.29197,435.43717h-9.81055l-1.5376,3.84375h-7.02832l9.95703-25.14844h7.02832l9.95654,25.14844h-7.02832l-1.53711-3.84375ZM187.42478,430.71549l-3.03809-7.72461-3.03857,7.72461h6.07666Z"/><path class="cls-5" d="M204.45115,414.13249h6.25928v25.14844h-6.25928v-25.14844Z"/><path class="cls-5" d="M219.31443,414.13249h6.25977l10.98193,14.8623v-14.8623h6.22266v25.14844h-6.22266l-10.98193-14.8623v14.8623h-6.25977v-25.14844Z"/><path class="cls-5" d="M257.68113,419.73307v3.91699h12.2998v5.60059h-12.2998v4.42969h13.54443v5.60059h-19.80371v-25.14844h19.80371v5.60059h-13.54443Z"/><path class="cls-5" d="M293.22849,439.28092l-5.52734-7.87012h-2.48926v7.87012h-6.25977v-25.14844h11.67773c5.56396,0,9.55371,3.55078,9.55371,8.63965,0,3.84277-2.26953,6.80859-5.82031,8.05273l5.9668,8.45605h-7.10156ZM285.21189,425.69987h4.86865c2.15967,0,3.66064-1.1709,3.66064-2.92773,0-1.75781-1.50098-2.92871-3.66064-2.92871h-4.86865v5.85645Z"/><path class="cls-1" d="M275.74689,283.49263c-3.49575,4.33742-8.79204,6.86091-14.39067,6.85684l-106.84068.02465c-5.60078.00108-10.89735-2.52715-14.39067-6.8691l-66.62309-82.83567c-.3724-.46702-.72169-.95177-1.04629-1.4526-2.36611-3.62002-3.35225-7.93588-2.8213-12.17853-.53601,4.24831.44939,8.57123,2.81886,12.19631.32469.50084.67389.98558,1.04639,1.4526l66.623,82.83567c3.49332,4.34195,8.78998,6.87017,14.39067,6.86905l106.84068-.02465c5.59872.00407,10.89492-2.51943,14.39067-6.8568l66.59849-82.84802c2.18482-2.7155,3.51558-5.95564,3.90173-9.32688-.38877,3.36493-1.71822,6.59852-3.8993,9.30929l-66.59849,82.84783Z"/><path class="cls-6" d="M345.90063,185.21302l-23.78345-103.30761c-1.24685-5.41593-4.91239-9.97402-9.95901-12.3841l-96.26616-45.9665c-2.77733-1.32688-5.84614-1.94067-8.92497-1.78497l.00009.00009c-2.44759.12329-4.84578.73016-7.0538,1.78497l-96.25381,45.9911c-5.04662,2.41012-8.71206,6.96821-9.95901,12.3841l-23.74641,103.30766c-.1376.59719-.24396,1.19807-.31992,1.80045-.53096,4.24265.45519,8.55851,2.8213,12.17853.3246.50084.67389.98558,1.04629,1.4526l66.62309,82.83567c3.49332,4.34195,8.78989,6.87017,14.39067,6.8691l106.84068-.02465c5.59863.00407,10.89492-2.51943,14.39067-6.85684l66.59849-82.84783c2.18108-2.71077,3.51053-5.94437,3.8993-9.30929.23162-2.02196.12348-4.09107-.34406-6.12247Z"/><path class="cls-3" d="M353.58211,186.83789l-25.10055-109.06872c-1.31954-5.7127-5.18853-10.51938-10.51288-13.06117l-101.6211-48.53929c-2.93439-1.40176-6.17692-2.04942-9.42964-1.88351-2.58098.13522-5.10883.77974-7.43546,1.89582l-101.6211,48.53929c-5.32735,2.54436-9.19671,7.35618-10.51298,13.07347l-25.06365,109.05656c-1.17305,5.07875-.22273,10.41218,2.63444,14.78458.34396.52637.71374,1.03582,1.10775,1.52641l70.32847,87.45199c3.6878,4.58316,9.27875,7.25183,15.19085,7.25076l112.78655-.02465c5.91004.00407,11.50062-2.65989,15.19085-7.23841l70.30378-87.46434c3.68621-4.58362,5.06804-10.58225,3.75468-16.29878ZM342.34295,200.66238l-66.59849,82.84802c-3.49575,4.33737-8.79195,6.86087-14.39067,6.8568l-106.84068.02465c-5.60068.00112-10.89735-2.5271-14.39067-6.86905l-66.623-82.83567c-.37249-.46702-.72169-.95177-1.04639-1.4526-2.36948-3.62508-3.35487-7.94799-2.81886-12.19631.07596-.60238.18232-1.20326.31992-1.80045l23.74641-103.30766c1.24695-5.41589,4.91239-9.97397,9.95901-12.3841l96.25381-45.9911c2.20802-1.05481,4.60621-1.66167,7.0538-1.78497l-.00009-.00009c3.07882-.1557,6.14764.45809,8.92497,1.78497l96.26616,45.9665c5.04662,2.41008,8.71215,6.96816,9.95901,12.3841l23.78345,103.30761c.46753,2.03141.57567,4.10051.34406,6.12247-.38615,3.37124-1.71691,6.61138-3.90173,9.32688Z"/><rect class="cls-5" x="147.22006" y="106.73727" width="49.44247" height="5.58533" transform="translate(-29.41741 77.66634) rotate(-23.50584)"/><rect class="cls-5" x="169.09917" y="119.12204" width="5.586" height="47.08886" transform="translate(-20.84227 255.60042) rotate(-70.06031)"/><rect class="cls-5" x="169.07184" y="132.95078" width="5.58535" height="85.74593" transform="translate(-73.20045 155.96011) rotate(-41.01846)"/><circle class="cls-3" cx="130.01428" cy="127.64104" r="20.94603" pointer-events="all"/><path class="cls-5" d="M130.01431,151.38014c-13.08951,0-23.73906-10.64955-23.73906-23.73906s10.64955-23.73906,23.73906-23.73906,23.73906,10.64955,23.73906,23.73906-10.64955,23.73906-23.73906,23.73906ZM130.01431,109.48797c-10.00969,0-18.15311,8.14342-18.15311,18.15311s8.14342,18.15311,18.15311,18.15311,18.15311-8.14342,18.15311-18.15311-8.14342-18.15311-18.15311-18.15311Z"/><rect class="cls-5" x="252.77898" y="91.99698" width="5.58574" height="64.57163" transform="translate(-.87143 246.75739) rotate(-51.46198)"/><circle class="cls-2" cx="213.7984" cy="91.27874" r="20.94603" pointer-events="all"/><path class="cls-5" d="M213.79817,114.45578c-12.77946,0-23.17672-10.39726-23.17672-23.17721s10.39726-23.17721,23.17672-23.17721,23.17721,10.39726,23.17721,23.17721-10.39726,23.17721-23.17721,23.17721ZM213.79817,72.56361c-10.31925,0-18.71447,8.39522-18.71447,18.71497s8.39522,18.71497,18.71447,18.71497,18.71497-8.39522,18.71497-18.71497-8.39522-18.71497-18.71497-18.71497Z"/><rect class="cls-5" x="234.74426" y="154.81495" width="41.89217" height="5.58595"/><circle class="cls-2" cx="213.7984" cy="157.60783" r="20.94603" pointer-events="all"/><path class="cls-5" d="M213.79817,180.78514c-12.77946,0-23.17672-10.39726-23.17672-23.17721s10.39726-23.17721,23.17672-23.17721,23.17721,10.39726,23.17721,23.17721-10.39726,23.17721-23.17721,23.17721ZM213.79817,138.89297c-10.31925,0-18.71447,8.39522-18.71447,18.71497s8.39522,18.71497,18.71447,18.71497,18.71497-8.39522,18.71497-18.71497-8.39522-18.71497-18.71497-18.71497Z"/><rect class="cls-5" x="223.11292" y="187.86805" width="64.97366" height="5.58546" transform="translate(-63.13535 200.18447) rotate(-38.43201)"/><circle class="cls-2" cx="213.7984" cy="223.93693" r="20.94603" pointer-events="all"/><path class="cls-5" d="M213.79817,247.11401c-12.77946,0-23.17672-10.39726-23.17672-23.17721s10.39726-23.17721,23.17672-23.17721,23.17721,10.39726,23.17721,23.17721-10.39726,23.17721-23.17721,23.17721ZM213.79817,205.22183c-10.31925,0-18.71447,8.39522-18.71447,18.71497s8.39522,18.71497,18.71447,18.71497,18.71497-8.39522,18.71497-18.71497-8.39522-18.71497-18.71497-18.71497Z"/><circle class="cls-4" cx="297.58251" cy="157.60783" r="20.94603" pointer-events="all"/><path class="cls-5" d="M297.58252,181.34699c-13.08951,0-23.73906-10.64955-23.73906-23.73906s10.64955-23.73906,23.73906-23.73906,23.73906,10.64955,23.73906,23.73906-10.64955,23.73906-23.73906,23.73906ZM297.58252,139.45482c-10.00969,0-18.15311,8.14342-18.15311,18.15311s8.14342,18.15311,18.15311,18.15311,18.15311-8.14342,18.15311-18.15311-8.14342-18.15311-18.15311-18.15311Z"/><rect class="cls-5" x="124.4269" y="142.60359" width="94.97299" height="5.58532" transform="translate(-48.236 192.60357) rotate(-52.3258)"/><rect class="cls-5" x="145.99007" y="175.69793" width="51.77654" height="5.58578" transform="translate(-61.89301 96.31971) rotate(-26.71453)"/><rect class="cls-5" x="169.0857" y="189.13867" width="5.58528" height="45.38321" transform="translate(-79.60484 317.52057) rotate(-73.7397)"/><circle class="cls-3" cx="130.01428" cy="199.4999" r="20.94603" pointer-events="all"/><path class="cls-5" d="M130.01431,223.23868c-13.08951,0-23.73906-10.64906-23.73906-23.73857s10.64955-23.73906,23.73906-23.73906,23.73906,10.64955,23.73906,23.73906-10.64955,23.73857-23.73906,23.73857ZM130.01431,181.34699c-10.00969,0-18.15311,8.14342-18.15311,18.15311s8.14342,18.15262,18.15311,18.15262,18.15311-8.14293,18.15311-18.15262-8.14342-18.15311-18.15311-18.15311Z"/></svg>